<svg xmlns="http://www.w3.org/2000/svg" viewBox="0 0 600 230" role="img" aria-labelledby="peakmetricsLogoTitle peakmetricsLogoDesc">
  <title id="peakmetricsLogoTitle">PeakMetrics logo</title>
  <desc id="peakmetricsLogoDesc">Stylized mountain mark with analytics bars and the text PeakMetrics.</desc>
  <defs>
    <linearGradient id="pmBlue" x1="0" y1="0" x2="1" y2="1">
      <stop offset="0%" stop-color="#47b4ff"/>
      <stop offset="100%" stop-color="#1b4fd8"/>
    </linearGradient>
  </defs>

  <g transform="translate(30 18)">
    <path d="M66 116l76-86 34 44 70-78 44 60 22-30 80 120h-70l-30-52v52h-44V58l-20 20-20-28-84 96H66z" fill="url(#pmBlue)" opacity="0.95"/>
    <rect x="178" y="97" width="22" height="49" fill="#2f7de9"/>
    <rect x="206" y="84" width="22" height="62" fill="#2a72de"/>
    <rect x="234" y="72" width="22" height="74" fill="#245ec4"/>
    <rect x="262" y="57" width="22" height="89" fill="#1f4aa7"/>
    <path d="M102 126h38v20H92z" fill="#1f5ec8"/>
    <path d="M104 120h35l14-17" fill="none" stroke="#7fd8ff" stroke-width="6" stroke-linecap="round"/>
    <path d="M350 16l6 13 14 1-11 8 4 13-13-7-12 7 3-13-10-8 14-1z" fill="#7fd8ff"/>
  </g>

  <text x="300" y="186" text-anchor="middle" font-family="Segoe UI, Arial, sans-serif" font-size="66" font-weight="700" fill="#1b4fd8">PeakMetrics</text>
  <text x="300" y="216" text-anchor="middle" font-family="Segoe UI, Arial, sans-serif" font-size="30" font-weight="700" fill="#2d7de6" letter-spacing="1.2">ANALYTICS &amp; INSIGHTS</text>
</svg>
